<?xml version="1.0" encoding="utf-8"?>
<!-- Generator: Adobe Illustrator 17.1.0, SVG Export Plug-In . SVG Version: 6.00 Build 0)  -->
<!DOCTYPE svg PUBLIC "-//W3C//DTD SVG 1.1//EN" "http://www.w3.org/Graphics/SVG/1.1/DTD/svg11.dtd">
<svg version="1.1" id="Layer_1" xmlns="http://www.w3.org/2000/svg" xmlns:xlink="http://www.w3.org/1999/xlink" x="0px" y="0px"
	 viewBox="0 0 612 792" enable-background="new 0 0 612 792" xml:space="preserve">
<rect x="58.5" y="678" fill="#FCDE32" width="507.5" height="112"/>
<rect x="146.4" y="701.1" fill="#C5F9F8" width="36.9" height="54.6"/>
<rect x="74.1" y="701.1" fill="#C5F9F8" width="36.9" height="54.6"/>
<rect x="218.6" y="701.1" fill="#C5F9F8" width="36.9" height="54.6"/>
<rect x="276.4" y="701.1" fill="#C5F9F8" width="62.1" height="88.9"/>
<rect x="363.1" y="701.1" fill="#C5F9F8" width="36.9" height="54.6"/>
<rect x="435.3" y="701.1" fill="#C5F9F8" width="36.9" height="54.6"/>
<rect x="507.6" y="701.1" fill="#C5F9F8" width="36.9" height="54.6"/>
<rect x="129.1" y="412" fill="#686868" width="29.8" height="52"/>
<rect x="90.2" y="412" fill="#686868" width="29.8" height="52"/>
<rect x="168" y="412" fill="#686868" width="29.8" height="52"/>
<rect x="245.8" y="412" fill="#686868" width="29.8" height="52"/>
<rect x="323.6" y="412" fill="#686868" width="29.8" height="52"/>
<rect x="284.7" y="412" fill="#686868" width="29.8" height="52"/>
<rect x="206.9" y="412" fill="#686868" width="29.8" height="52"/>
<rect x="77.5" y="470" fill="#A5A5A5" width="474.5" height="30"/>
<rect x="401.4" y="412" fill="#686868" width="29.8" height="52"/>
<rect x="362.5" y="412" fill="#686868" width="29.8" height="52"/>
<rect x="440.3" y="412" fill="#686868" width="29.8" height="52"/>
<rect x="518.1" y="412" fill="#686868" width="29.8" height="52"/>
<rect x="479.2" y="412" fill="#686868" width="29.8" height="52"/>
<rect x="38.2" y="648" fill="#A5A5A5" width="548" height="30"/>
<polygon fill="#797C7C" points="544.4,600 90.2,598 38.2,648 584,648 "/>
<rect x="86.5" y="500" fill="#DDDDDD" width="458" height="103"/>
<rect x="156.8" y="515.9" fill="#C5F9F8" width="35.2" height="54.6"/>
<rect x="100" y="515.9" fill="#C5F9F8" width="35.2" height="54.6"/>
<rect x="213.7" y="515.9" fill="#C5F9F8" width="35.2" height="54.6"/>
<rect x="270.5" y="515.9" fill="#C5F9F8" width="35.2" height="54.6"/>
<rect x="327.3" y="515.9" fill="#C5F9F8" width="35.2" height="54.6"/>
<rect x="384.2" y="515.9" fill="#C5F9F8" width="35.2" height="54.6"/>
<rect x="441" y="515.9" fill="#C5F9F8" width="35.2" height="54.6"/>
<rect x="497.8" y="515.9" fill="#C5F9F8" width="35.2" height="54.6"/>
</svg>
