<?xml version="1.0" encoding="utf-8"?>
<!-- Generator: Adobe Illustrator 17.1.0, SVG Export Plug-In . SVG Version: 6.00 Build 0)  -->
<!DOCTYPE svg PUBLIC "-//W3C//DTD SVG 1.1//EN" "http://www.w3.org/Graphics/SVG/1.1/DTD/svg11.dtd">
<svg version="1.1" id="Layer_1" xmlns="http://www.w3.org/2000/svg" xmlns:xlink="http://www.w3.org/1999/xlink" x="0px" y="0px"
	 viewBox="0 0 612 792" enable-background="new 0 0 612 792" xml:space="preserve">
<rect x="58.5" y="494" fill="#DDDDDD" width="518" height="294"/>
<g>
	<rect x="148.2" y="554.5" fill="#C5F9F8" width="37.6" height="62"/>
	<rect x="74.5" y="554.5" fill="#C5F9F8" width="37.6" height="62"/>
	<rect x="221.9" y="554.5" fill="#C5F9F8" width="37.6" height="62"/>
	<rect x="295.6" y="554.5" fill="#C5F9F8" width="37.6" height="62"/>
	<rect x="369.4" y="554.5" fill="#C5F9F8" width="37.6" height="62"/>
	<rect x="443.1" y="554.5" fill="#C5F9F8" width="37.6" height="62"/>
	<rect x="516.8" y="554.5" fill="#C5F9F8" width="37.6" height="62"/>
</g>
<g>
	<rect x="148.2" y="649.5" fill="#C5F9F8" width="37.6" height="62"/>
	<rect x="74.5" y="649.5" fill="#C5F9F8" width="37.6" height="62"/>
	<rect x="221.9" y="649.5" fill="#C5F9F8" width="37.6" height="62"/>
	<rect x="295.6" y="649.5" fill="#C5F9F8" width="37.6" height="62"/>
	<rect x="369.4" y="649.5" fill="#C5F9F8" width="37.6" height="62"/>
	<rect x="443.1" y="649.5" fill="#C5F9F8" width="37.6" height="62"/>
	<rect x="516.8" y="649.5" fill="#C5F9F8" width="37.6" height="62"/>
</g>
<rect x="129.1" y="410" fill="#7D7F7F" width="29.8" height="52"/>
<rect x="90.2" y="410" fill="#7D7F7F" width="29.8" height="52"/>
<rect x="168" y="410" fill="#7D7F7F" width="29.8" height="52"/>
<rect x="245.8" y="410" fill="#7D7F7F" width="29.8" height="52"/>
<rect x="323.6" y="410" fill="#7D7F7F" width="29.8" height="52"/>
<rect x="284.7" y="410" fill="#7D7F7F" width="29.8" height="52"/>
<rect x="206.9" y="410" fill="#7D7F7F" width="29.8" height="52"/>
<rect x="43.5" y="468" fill="#C4C4C4" width="548" height="30"/>
<rect x="401.4" y="410" fill="#7D7F7F" width="29.8" height="52"/>
<rect x="362.5" y="410" fill="#7D7F7F" width="29.8" height="52"/>
<rect x="440.3" y="410" fill="#7D7F7F" width="29.8" height="52"/>
<rect x="518.1" y="410" fill="#7D7F7F" width="29.8" height="52"/>
<rect x="479.2" y="410" fill="#7D7F7F" width="29.8" height="52"/>
</svg>
