<?xml version="1.0" encoding="utf-8"?>
<!-- Generator: Adobe Illustrator 17.1.0, SVG Export Plug-In . SVG Version: 6.00 Build 0)  -->
<!DOCTYPE svg PUBLIC "-//W3C//DTD SVG 1.1//EN" "http://www.w3.org/Graphics/SVG/1.1/DTD/svg11.dtd">
<svg version="1.1" id="Layer_1" xmlns="http://www.w3.org/2000/svg" xmlns:xlink="http://www.w3.org/1999/xlink" x="0px" y="0px"
	 viewBox="0 0 119.8 75.9" enable-background="new 0 0 119.8 75.9" xml:space="preserve">
<g>
	<g>
		<g>
			<g>
				<polygon fill="#D3EBE0" points="79.5,48.1 59.7,33.1 39.9,48.1 39.9,62 39.9,75.9 59.7,75.9 79.5,75.9 79.5,62 				"/>
			</g>
			<g>
				<g>
					
						<rect x="47.4" y="26.6" transform="matrix(0.6024 0.7982 -0.7982 0.6024 52.5391 -22.7964)" fill="#005B41" width="3.5" height="29.4"/>
				</g>
				<g>
					
						<rect x="55.9" y="39.6" transform="matrix(0.7982 0.6024 -0.6024 0.7982 39.1503 -34.1864)" fill="#005B41" width="29.4" height="3.5"/>
				</g>
			</g>
		</g>
		<g>
			<g>
				<path fill="#A5DAD3" d="M51.7,57.1c0,1.6-1.3,2.8-2.8,2.8h-2.4c-1.6,0-2.8-1.3-2.8-2.8v-2.4c0-1.6,1.3-2.8,2.8-2.8h2.4
					c1.6,0,2.8,1.3,2.8,2.8V57.1z"/>
			</g>
			<g>
				<path fill="#A5DAD3" d="M76.1,57.1c0,1.6-1.3,2.8-2.8,2.8h-2.4c-1.6,0-2.8-1.3-2.8-2.8v-2.4c0-1.6,1.3-2.8,2.8-2.8h2.4
					c1.6,0,2.8,1.3,2.8,2.8V57.1z"/>
			</g>
		</g>
	</g>
	<g>
		<g>
			<path fill="#A6D8BE" d="M64.8,75.7V65.3c0-1.5-1.3-2.7-2.8-2.7h-4.2c-1.6,0-2.8,1.2-2.8,2.7v10.3c0,0.1,0,0.1,0,0.2h9.8
				C64.8,75.8,64.8,75.7,64.8,75.7z"/>
		</g>
	</g>
</g>
</svg>
