<?xml version="1.0" encoding="utf-8"?>
<!-- Generator: Adobe Illustrator 17.1.0, SVG Export Plug-In . SVG Version: 6.00 Build 0)  -->
<!DOCTYPE svg PUBLIC "-//W3C//DTD SVG 1.1//EN" "http://www.w3.org/Graphics/SVG/1.1/DTD/svg11.dtd">
<svg version="1.1" id="Layer_1" xmlns="http://www.w3.org/2000/svg" xmlns:xlink="http://www.w3.org/1999/xlink" x="0px" y="0px"
	 viewBox="0 0 612 792" enable-background="new 0 0 612 792" xml:space="preserve">
<g>
	<g>
		<g>
			<g>
				<polygon fill="#FDFBE2" points="480.6,532.4 298,393.5 115.4,532.4 115.4,660.5 115.4,789.5 298,789.5 480.6,789.5 480.6,660.5 
									"/>
			</g>
			<g>
				<g>
					
						<rect x="183.9" y="333.5" transform="matrix(-0.6024 -0.7982 0.7982 -0.6024 -53.8407 912.1544)" fill="#33603F" width="32.8" height="271.9"/>
				</g>
				<g>
					
						<rect x="261.9" y="453.3" transform="matrix(-0.7982 -0.6024 0.6024 -0.7982 432.4615 1084.3086)" fill="#33603F" width="271.9" height="32.8"/>
				</g>
			</g>
		</g>
		<g>
			<g>
				<path fill="#D0E9D4" d="M224.6,614.8c0,14.9-11.9,25.8-25.8,25.8h-21.8c-14.9,0-25.8-11.9-25.8-25.8V593
					c0-14.9,11.9-25.8,25.8-25.8h21.8c14.9,0,25.8,11.9,25.8,25.8V614.8z"/>
			</g>
			<g>
				<path fill="#D0E9D4" d="M449.9,614.8c0,14.9-11.9,25.8-25.8,25.8h-21.8c-14.9,0-25.8-11.9-25.8-25.8V593
					c0-14.9,11.9-25.8,25.8-25.8h21.8c14.9,0,25.8,11.9,25.8,25.8V614.8z"/>
			</g>
		</g>
	</g>
	<g>
		<g>
			<path fill="#CFE6BE" d="M345.7,786.5v-95.3c0-13.9-11.9-24.8-25.8-24.8h-38.7c-14.9,0-25.8,10.9-25.8,24.8v95.3c0,1,0,1,0,2h91.3
				C345.7,788.5,345.7,787.5,345.7,786.5z"/>
		</g>
	</g>
</g>
</svg>
