<?xml version="1.0" encoding="utf-8"?>
<!-- Generator: Adobe Illustrator 17.1.0, SVG Export Plug-In . SVG Version: 6.00 Build 0)  -->
<!DOCTYPE svg PUBLIC "-//W3C//DTD SVG 1.1//EN" "http://www.w3.org/Graphics/SVG/1.1/DTD/svg11.dtd">
<svg version="1.1" id="Layer_1" xmlns="http://www.w3.org/2000/svg" xmlns:xlink="http://www.w3.org/1999/xlink" x="0px" y="0px"
	 viewBox="0 0 612 792" enable-background="new 0 0 612 792" xml:space="preserve">
<g>
	<g>
		<g>
			<g>
				<path fill="#686969" d="M286.9,784.4V432c0-50.5-6.3-91.5-14-91.5h-21c-7.7,0-14,41-14,91.5v352.4c0,2.6,0.1,5.1,0.1,7.6h48.8
					C286.8,789.4,286.9,787,286.9,784.4z"/>
			</g>
		</g>
	</g>
	<g>
		<path fill="#636464" d="M138.6,533.3c-3.9,0-7.9-1.2-11.3-3.6c-5.5-3.8-8.4-9.9-8.4-16.1c0-3.9,1.2-7.9,3.6-11.3l116-165.1
			l-85-183c-1.2-2.7-1.8-5.5-1.8-8.3c0-7.4,4.2-14.5,11.4-17.9c9.9-4.6,21.6-0.3,26.1,9.6l85,183l201,17.9
			c10.2,0.9,17.9,9.5,17.9,19.6c0,0.6,0,1.2-0.1,1.8c-1,10.8-10.5,18.8-21.4,17.9l-200.9-17.9L154.7,525
			C150.9,530.4,144.8,533.3,138.6,533.3z"/>
	</g>
</g>
</svg>
